<svg xmlns="http://www.w3.org/2000/svg" version="1.1" xmlns:xlink="http://www.w3.org/1999/xlink" xmlns:svgjs="http://svgjs.dev/svgjs" viewBox="0 0 800 800"><defs><linearGradient x1="50%" y1="0%" x2="50%" y2="100%" id="nnneon-grad"><stop stop-color="hsl(157, 100%, 54%)" stop-opacity="1" offset="0%"></stop><stop stop-color="hsl(331, 87%, 61%)" stop-opacity="1" offset="100%"></stop></linearGradient><filter id="nnneon-filter" x="-100%" y="-100%" width="400%" height="400%" filterUnits="objectBoundingBox" primitiveUnits="userSpaceOnUse" color-interpolation-filters="sRGB">
	<feGaussianBlur stdDeviation="26 16" x="0%" y="0%" width="100%" height="100%" in="SourceGraphic" edgeMode="none" result="blur"></feGaussianBlur></filter><filter id="nnneon-filter2" x="-100%" y="-100%" width="400%" height="400%" filterUnits="objectBoundingBox" primitiveUnits="userSpaceOnUse" color-interpolation-filters="sRGB">
	<feGaussianBlur stdDeviation="23 17" x="0%" y="0%" width="100%" height="100%" in="SourceGraphic" edgeMode="none" result="blur"></feGaussianBlur></filter></defs><g stroke-width="24" stroke="url(#nnneon-grad)" fill="none"><path d="M385.73856045580453 209.99798199526248C391.5812514218205 198.1916729081605 408.4187666185474 198.1916729081605 414.2614575845634 209.99798199526248L595.3291873938551 575.8885480081265C600.5624691441892 586.4633094896467 592.8676833294687 598.8567517375493 581.0693299762529 598.8567517375493H218.93068806411497C207.13233471089916 598.8567517375493 199.43754889617884 586.4633094896467 204.67083064651285 575.8885480081265L385.73856045580453 209.99798199526248Z " filter="url(#nnneon-filter)"></path><path d="M442.73856045580453 209.99798199526248C448.5812514218205 198.1916729081605 465.4187666185474 198.1916729081605 471.2614575845634 209.99798199526248L652.3291873938551 575.8885480081265C657.5624691441892 586.4633094896467 649.8676833294687 598.8567517375493 638.0693299762529 598.8567517375493H275.930688064115C264.13233471089916 598.8567517375493 256.43754889617884 586.4633094896467 261.67083064651285 575.8885480081265L442.73856045580453 209.99798199526248Z " filter="url(#nnneon-filter2)" opacity="0.29"></path><path d="M328.73856045580453 209.99798199526248C334.5812514218205 198.1916729081605 351.4187666185474 198.1916729081605 357.2614575845634 209.99798199526248L538.3291873938551 575.8885480081265C543.5624691441892 586.4633094896467 535.8676833294687 598.8567517375493 524.0693299762529 598.8567517375493H161.93068806411497C150.13233471089916 598.8567517375493 142.43754889617884 586.4633094896467 147.67083064651285 575.8885480081265L328.73856045580453 209.99798199526248Z " filter="url(#nnneon-filter2)" opacity="0.29"></path><path d="M385.73856045580453 209.99798199526248C391.5812514218205 198.1916729081605 408.4187666185474 198.1916729081605 414.2614575845634 209.99798199526248L595.3291873938551 575.8885480081265C600.5624691441892 586.4633094896467 592.8676833294687 598.8567517375493 581.0693299762529 598.8567517375493H218.93068806411497C207.13233471089916 598.8567517375493 199.43754889617884 586.4633094896467 204.67083064651285 575.8885480081265L385.73856045580453 209.99798199526248Z "></path></g></svg>